<svg xmlns="http://www.w3.org/2000/svg" xmlns:xlink="http://www.w3.org/1999/xlink" width="31.854" height="32" viewBox="0 0 31.854 32">
  <defs>
    <linearGradient id="linear-gradient" y1="0.5" x2="1" y2="0.5" gradientUnits="objectBoundingBox">
      <stop offset="0" stop-color="#3fd0e2"/>
      <stop offset="1" stop-color="#1d8cda"/>
    </linearGradient>
  </defs>
  <g id="Group_1161" data-name="Group 1161" transform="translate(-20 -527)">
    <g id="Group_130" data-name="Group 130" transform="translate(20.004 527.148)">
      <path id="Path_133" data-name="Path 133" d="M-141.241-62.412h-23.7a4.09,4.09,0,0,1-4.077-4.079V-90.185a4.09,4.09,0,0,1,4.077-4.079h23.7a4.09,4.09,0,0,1,4.077,4.079v23.694a4.09,4.09,0,0,1-4.077,4.079Z" transform="translate(169.014 94.116)" fill="#fff"/>
      <path id="Path_133-2" data-name="Path 133" d="M-141.241-62.412h-23.7a4.09,4.09,0,0,1-4.077-4.079V-90.185a4.09,4.09,0,0,1,4.077-4.079h23.7a4.09,4.09,0,0,1,4.077,4.079v23.694a4.09,4.09,0,0,1-4.077,4.079Zm2.762-5.4V-88.869a4.09,4.09,0,0,0-4.077-4.079H-163.62a4.09,4.09,0,0,0-4.077,4.079v21.062a4.089,4.089,0,0,0,4.077,4.079h21.064a4.089,4.089,0,0,0,4.076-4.079Z" transform="translate(169.014 94.264)" fill="url(#linear-gradient)"/>
      <path id="Path_132" data-name="Path 132" d="M-155.841-87.711c.556-.018,1.111,0,1.669-.006h.229v-2.892c-.3-.03-.606-.073-.917-.087-.572-.026-1.142-.055-1.714-.041a4.186,4.186,0,0,0-2.416.748,3.613,3.613,0,0,0-1.452,2.414,8.187,8.187,0,0,0-.1,1.243c-.016.649,0,1.3,0,1.949v.243h-2.769v3.231h2.754v8.123h3.363V-80.9h2.744c.14-1.077.276-2.14.422-3.247h-3.187s.008-1.6.028-2.3C-157.169-87.392-156.6-87.684-155.841-87.711Z" transform="translate(174.554 97.69)" fill-rule="evenodd" fill="url(#linear-gradient)"/>
    </g>
  </g>
</svg>
