<svg xmlns="http://www.w3.org/2000/svg" xmlns:xlink="http://www.w3.org/1999/xlink" width="31.854" height="31.852" viewBox="0 0 31.854 31.852">
  <defs>
    <linearGradient id="linear-gradient" y1="0.5" x2="1" y2="0.5" gradientUnits="objectBoundingBox">
      <stop offset="0" stop-color="#3fd0e2"/>
      <stop offset="1" stop-color="#1d8cda"/>
    </linearGradient>
  </defs>
  <g id="Group_1163" data-name="Group 1163" transform="translate(-19.998 -604)">
    <path id="Path_133" data-name="Path 133" d="M-141.241-62.412h-23.7a4.09,4.09,0,0,1-4.077-4.079V-90.185a4.09,4.09,0,0,1,4.077-4.079h23.7a4.09,4.09,0,0,1,4.077,4.079v23.694a4.09,4.09,0,0,1-4.077,4.079Z" transform="translate(189.016 698.264)" fill="#fff"/>
    <g id="Group_132" data-name="Group 132" transform="translate(20 604)">
      <path id="Path_136" data-name="Path 136" d="M-121.85-79.478a3.211,3.211,0,0,1-2.98-2.223,3.16,3.16,0,0,0,1.373-.041.24.24,0,0,0,.045-.02,3.2,3.2,0,0,1-2.081-1.471,3.1,3.1,0,0,1-.467-1.7,3.182,3.182,0,0,0,1.426.389,3.218,3.218,0,0,1-1.32-1.943,3.175,3.175,0,0,1,.343-2.322,9.165,9.165,0,0,0,6.608,3.347c-.02-.126-.039-.237-.051-.349a3.1,3.1,0,0,1,.467-2.1,3.085,3.085,0,0,1,2.172-1.45,3.125,3.125,0,0,1,2.8.9.164.164,0,0,0,.172.049,6.516,6.516,0,0,0,1.862-.716l.041-.022h.022a3.271,3.271,0,0,1-1.371,1.744,6.127,6.127,0,0,0,1.789-.49l.014.016c-.122.16-.241.323-.369.479a6.249,6.249,0,0,1-1.164,1.107.106.106,0,0,0-.053.1,9.014,9.014,0,0,1-.059,1.422,9.442,9.442,0,0,1-.826,2.852,9.249,9.249,0,0,1-1.73,2.527,8.574,8.574,0,0,1-4.4,2.452,9.493,9.493,0,0,1-1.783.213A9.061,9.061,0,0,1-126.5-78.1l-.075-.047a6.468,6.468,0,0,0,3.2-.444,6.28,6.28,0,0,0,1.52-.887Z" transform="translate(134.709 98.988)" fill-rule="evenodd" fill="url(#linear-gradient)"/>
      <path id="Path_137" data-name="Path 137" d="M-102.927-62.412h-23.694a4.092,4.092,0,0,1-4.079-4.079V-90.185a4.092,4.092,0,0,1,4.079-4.079h23.694a4.092,4.092,0,0,1,4.079,4.079v23.694a4.092,4.092,0,0,1-4.079,4.079Zm2.763-5.4V-88.869a4.092,4.092,0,0,0-4.079-4.079h-21.062a4.091,4.091,0,0,0-4.079,4.079v21.062a4.09,4.09,0,0,0,4.079,4.079h21.062a4.091,4.091,0,0,0,4.079-4.079Z" transform="translate(130.7 94.264)" fill="url(#linear-gradient)"/>
    </g>
  </g>
</svg>
