<svg xmlns="http://www.w3.org/2000/svg" xmlns:xlink="http://www.w3.org/1999/xlink" width="31.856" height="31.852" viewBox="0 0 31.856 31.852">
  <defs>
    <linearGradient id="linear-gradient" y1="0.5" x2="1" y2="0.5" gradientUnits="objectBoundingBox">
      <stop offset="0" stop-color="#3fd0e2"/>
      <stop offset="1" stop-color="#1d8cda"/>
    </linearGradient>
  </defs>
  <g id="Group_1162" data-name="Group 1162" transform="translate(-19.998 -566)">
    <path id="Path_133" data-name="Path 133" d="M-141.241-62.412h-23.7a4.09,4.09,0,0,1-4.077-4.079V-90.185a4.09,4.09,0,0,1,4.077-4.079h23.7a4.09,4.09,0,0,1,4.077,4.079v23.694a4.09,4.09,0,0,1-4.077,4.079Z" transform="translate(189.016 660.264)" fill="#fff"/>
    <g id="Group_131" data-name="Group 131" transform="translate(20.004 566)">
      <path id="Path_134" data-name="Path 134" d="M-128.52-86.236a4.766,4.766,0,0,0-1.454-3.065,4.973,4.973,0,0,0-3.294-1.337,64.764,64.764,0,0,0-8.882.1,4.534,4.534,0,0,0-3.886,3.487c-.428,1.529-.341,8.572-.093,10.083a4.548,4.548,0,0,0,3.608,3.917,53.389,53.389,0,0,0,9.941.065,4.553,4.553,0,0,0,3.935-3.592C-128.234-78.149-128.378-84.822-128.52-86.236Zm-1.655,8.975a3.039,3.039,0,0,1-2.858,2.712c-1.448.158-7.918.247-9.263-.13a2.944,2.944,0,0,1-2.233-2.535,60.111,60.111,0,0,1,0-9.066,3.033,3.033,0,0,1,2.846-2.7,63.235,63.235,0,0,1,8.841.034,3.043,3.043,0,0,1,2.708,2.864,64.6,64.6,0,0,1-.041,8.821Zm-7.18-9.109a4.6,4.6,0,0,0-3.256,1.351,4.6,4.6,0,0,0-1.344,3.259,4.6,4.6,0,0,0,4.594,4.6A4.6,4.6,0,0,0-134.1-78.5a4.6,4.6,0,0,0,1.353-3.258,4.6,4.6,0,0,0-1.347-3.263A4.6,4.6,0,0,0-137.355-86.37Zm-.032,7.584a2.975,2.975,0,0,1-2.945-2.99,2.972,2.972,0,0,1,.878-2.1,2.972,2.972,0,0,1,2.11-.863,2.973,2.973,0,0,1,2.1.878,2.973,2.973,0,0,1,.863,2.11,2.976,2.976,0,0,1-.886,2.112,2.976,2.976,0,0,1-2.124.857Zm5.894-7.756a1.07,1.07,0,0,1-.315.762,1.07,1.07,0,0,1-.764.311,1.069,1.069,0,0,1-.764-.311,1.069,1.069,0,0,1-.315-.762,1.071,1.071,0,0,1,.316-.772,1.071,1.071,0,0,1,.773-.311,1.072,1.072,0,0,1,.76.319A1.072,1.072,0,0,1-131.493-86.542Z" transform="translate(153.281 97.691)" fill="url(#linear-gradient)"/>
      <path id="Path_135" data-name="Path 135" d="M-122.084-62.412h-23.7a4.09,4.09,0,0,1-4.077-4.079V-90.185a4.09,4.09,0,0,1,4.077-4.079h23.7a4.09,4.09,0,0,1,4.077,4.079v23.694a4.09,4.09,0,0,1-4.077,4.079Zm2.761-5.4V-88.869a4.09,4.09,0,0,0-4.077-4.079h-21.064a4.09,4.09,0,0,0-4.077,4.079v21.062a4.089,4.089,0,0,0,4.077,4.079H-123.4a4.089,4.089,0,0,0,4.077-4.079Z" transform="translate(149.857 94.264)" fill="url(#linear-gradient)"/>
    </g>
  </g>
</svg>
