<svg xmlns="http://www.w3.org/2000/svg" xmlns:xlink="http://www.w3.org/1999/xlink" width="31.856" height="31.854" viewBox="0 0 31.856 31.854">
  <defs>
    <linearGradient id="linear-gradient" y1="0.5" x2="1" y2="0.5" gradientUnits="objectBoundingBox">
      <stop offset="0" stop-color="#3fd0e2"/>
      <stop offset="1" stop-color="#1d8cda"/>
    </linearGradient>
  </defs>
  <g id="Group_1164" data-name="Group 1164" transform="translate(-19.998 -681)">
    <path id="Path_133" data-name="Path 133" d="M-141.241-62.412h-23.7a4.09,4.09,0,0,1-4.077-4.079V-90.185a4.09,4.09,0,0,1,4.077-4.079h23.7a4.09,4.09,0,0,1,4.077,4.079v23.694a4.09,4.09,0,0,1-4.077,4.079Z" transform="translate(189.016 775.264)" fill="#fff"/>
    <g id="Group_135" data-name="Group 135" transform="translate(20.004 681.004)">
      <path id="Path_141" data-name="Path 141" d="M-86.867-77.655a1.977,1.977,0,0,1-1.3-1.266c-.564-1.55-.732-8.042.355-9.32A2.1,2.1,0,0,1-86.4-89c2.927-.316,11.977-.27,13.018.107A2.042,2.042,0,0,1-72.1-87.659c.615,1.6.637,7.44-.083,8.987a1.977,1.977,0,0,1-.917.925C-74.19-77.174-85.431-77.181-86.867-77.655Zm4.649-3.042,5.274-2.736-5.274-2.752Z" transform="translate(96.051 99.183)" fill-rule="evenodd" fill="url(#linear-gradient)"/>
      <path id="Path_142" data-name="Path 142" d="M-64.612-62.414h-23.7a4.089,4.089,0,0,1-4.077-4.077v-23.7a4.089,4.089,0,0,1,4.077-4.077h23.7a4.089,4.089,0,0,1,4.077,4.077v23.7A4.089,4.089,0,0,1-64.612-62.414Zm2.762-5.393V-88.871a4.089,4.089,0,0,0-4.077-4.077H-86.992a4.089,4.089,0,0,0-4.077,4.077v21.064a4.089,4.089,0,0,0,4.077,4.077h21.064a4.089,4.089,0,0,0,4.077-4.077Z" transform="translate(92.385 94.264)" fill="url(#linear-gradient)"/>
    </g>
  </g>
</svg>
